<svg id="Layer_1" height="512" viewBox="0 0 512 512" width="512" xmlns="http://www.w3.org/2000/svg" data-name="Layer 1"><path d="m393.056 231.168v-1.117a11.172 11.172 0 0 1 11.16-11.161h-20a11.172 11.172 0 0 0 -11.16 11.161v1.117a11.173 11.173 0 0 0 11.16 11.161h20a11.173 11.173 0 0 1 -11.16-11.161z" fill="#d4e1f4"/><path d="m338.806 456.282v-202.1a17.1 17.1 0 0 1 17.085-17.082h-20a17.1 17.1 0 0 0 -17.085 17.084v202.1a17.1 17.1 0 0 0 17.085 17.084h20a17.1 17.1 0 0 1 -17.085-17.086z" fill="#d4e1f4"/><path d="m203.654 472a5.994 5.994 0 0 0 3-.8l109.152-63.02-6-10.392-100.152 57.823v-202.844l175.655-101.414v61.537h12v-71.914a6 6 0 0 0 -3-5.2l-187.655-108.338a6 6 0 0 0 -6 0l-187.654 108.342a6 6 0 0 0 -3 5.2v216.681a6 6 0 0 0 3 5.2l187.654 108.339a6 6 0 0 0 3 .8zm-83.667-277.931 175.641-101.406 83.668 48.3-175.642 101.412zm83.667-154.507 79.974 46.173-175.641 101.406-79.974-46.173zm-181.654 111.791 175.654 101.414v202.844l-175.654-101.411z" fill="#0635c9"/><g fill="#1ae5be"><path d="m472.916 225.1h-25.7a23.2 23.2 0 0 0 -22.623-18.208h-40.377a23.2 23.2 0 0 0 -22.622 18.208h-25.7a29.118 29.118 0 0 0 -29.085 29.084v202.1a29.118 29.118 0 0 0 29.085 29.084h137.022a29.117 29.117 0 0 0 29.084-29.086v-202.1a29.117 29.117 0 0 0 -29.084-29.082zm-99.86 4.953a11.172 11.172 0 0 1 11.16-11.161h40.373a11.173 11.173 0 0 1 11.161 11.161v1.117a11.173 11.173 0 0 1 -11.161 11.161h-40.373a11.173 11.173 0 0 1 -11.16-11.161zm116.944 226.229a17.1 17.1 0 0 1 -17.084 17.084h-137.025a17.1 17.1 0 0 1 -17.085-17.084v-202.1a17.1 17.1 0 0 1 17.085-17.082h25.937a23.2 23.2 0 0 0 22.388 17.231h40.373a23.2 23.2 0 0 0 22.389-17.231h25.938a17.1 17.1 0 0 1 17.084 17.082z"/><path d="m343.949 324.008h7.328a6 6 0 0 0 0-12h-1.328v-20.975h21.114a6 6 0 0 0 11.861-1.29v-4.71a6 6 0 0 0 -6-6h-32.975a6 6 0 0 0 -6 6v32.975a6 6 0 0 0 6 6z"/><path d="m343.949 388.126h32.975a6 6 0 0 0 6-6v-32.975a6 6 0 0 0 -6-6h-32.975a6 6 0 0 0 -6 6v32.975a6 6 0 0 0 6 6zm6-32.975h20.975v20.975h-20.975z"/><path d="m351.278 440.244h-1.329v-20.975h20.975v.745a6 6 0 0 0 12 0v-6.745a6 6 0 0 0 -6-6h-32.975a6 6 0 0 0 -6 6v32.975a6 6 0 0 0 6 6h7.329a6 6 0 0 0 0-12z"/><path d="m393.749 287.3-21.21 21.21-6.944-6.944a6 6 0 0 0 -8.485 8.486l11.19 11.185a6 6 0 0 0 8.485 0l25.453-25.452a6 6 0 0 0 -8.485-8.486z"/><path d="m393.749 416.548-21.21 21.21-6.944-6.944a6 6 0 0 0 -8.485 8.486l11.19 11.186a6 6 0 0 0 8.485 0l25.453-25.452a6 6 0 0 0 -8.485-8.486z"/><path d="m464.857 295.521h-43.966a6 6 0 0 0 0 12h43.966a6 6 0 0 0 0-12z"/><path d="m464.857 359.638h-43.966a6 6 0 0 0 0 12h43.966a6 6 0 0 0 0-12z"/><path d="m464.857 423.756h-43.966a6 6 0 1 0 0 12h43.966a6 6 0 1 0 0-12z"/></g></svg>