<?xml version="1.0" encoding="iso-8859-1"?>
<!-- Generator: Adobe Illustrator 19.0.0, SVG Export Plug-In . SVG Version: 6.00 Build 0)  -->
<svg version="1.1" id="Layer_1" xmlns="http://www.w3.org/2000/svg" xmlns:xlink="http://www.w3.org/1999/xlink" x="0px" y="0px"
	 viewBox="0 0 512 512" style="enable-background:new 0 0 512 512;" xml:space="preserve">
<g transform="translate(1 1)">
	<polygon style="fill:#FFFFFF;" points="417.133,7.533 92.867,7.533 7.533,144.067 7.533,502.467 502.467,502.467 502.467,144.067 	
		"/>
	<path style="fill:#0096E6;" d="M511,511H-1V141.507L87.747-1H421.4L511,141.507V511z M16.067,493.933h477.867V146.627
		l-81.92-130.56H97.987l-81.92,130.56V493.933z"/>
	<polygon style="fill:#D0E8F9;" points="220.867,186.733 255,220.867 289.133,186.733 306.2,203.8 306.2,7.533 203.8,7.533 
		203.8,203.8 	"/>
	<path style="fill:#0096E6;" d="M255,232.813l-34.133-34.133l-25.6,25.6V-1h119.467v225.28l-25.6-25.6L255,232.813z
		 M220.867,174.787L255,208.92l34.133-34.133l8.533,8.533V16.067h-85.333V183.32L220.867,174.787z"/>
	<polygon style="fill:#D0E8F9;" points="289.133,468.333 255,434.2 220.867,468.333 203.8,451.267 203.8,502.467 306.2,502.467 
		306.2,451.267 	"/>
	<g>
		<path style="fill:#0096E6;" d="M314.733,511H195.267v-80.213l25.6,25.6L255,422.253l34.133,34.133l25.6-25.6V511z
			 M212.333,493.933h85.333v-22.187l-8.533,8.533L255,446.147l-34.133,34.133l-8.533-8.533V493.933z"/>
		<path style="fill:#0096E6;" d="M502.467,152.6H7.533c-5.12,0-8.533-3.413-8.533-8.533c0-5.12,3.413-8.533,8.533-8.533h494.933
			c5.12,0,8.533,3.413,8.533,8.533C511,149.187,507.587,152.6,502.467,152.6z"/>
	</g>
	<polygon style="fill:#D0E8F9;" points="178.2,263.533 331.8,263.533 331.8,400.067 178.2,400.067 	"/>
	<g>
		<path style="fill:#0096E6;" d="M340.333,408.6H169.667V255h170.667V408.6z M186.733,391.533h136.533V272.067H186.733V391.533z"/>
		<path style="fill:#0096E6;" d="M297.667,374.467h-8.533c-5.12,0-8.533-3.413-8.533-8.533s3.413-8.533,8.533-8.533h8.533
			c5.12,0,8.533,3.413,8.533,8.533S302.787,374.467,297.667,374.467z M263.533,374.467h-51.2c-5.12,0-8.533-3.413-8.533-8.533
			s3.413-8.533,8.533-8.533h51.2c5.12,0,8.533,3.413,8.533,8.533S268.653,374.467,263.533,374.467z M297.667,340.333H280.6
			c-5.12,0-8.533-3.413-8.533-8.533s3.413-8.533,8.533-8.533h17.067c5.12,0,8.533,3.413,8.533,8.533
			S302.787,340.333,297.667,340.333z M229.4,340.333h-17.067c-5.12,0-8.533-3.413-8.533-8.533s3.413-8.533,8.533-8.533H229.4
			c5.12,0,8.533,3.413,8.533,8.533S234.52,340.333,229.4,340.333z M297.667,306.2h-51.2c-5.12,0-8.533-3.413-8.533-8.533
			s3.413-8.533,8.533-8.533h51.2c5.12,0,8.533,3.413,8.533,8.533S302.787,306.2,297.667,306.2z M220.867,306.2h-8.533
			c-5.12,0-8.533-3.413-8.533-8.533s3.413-8.533,8.533-8.533h8.533c5.12,0,8.533,3.413,8.533,8.533S225.987,306.2,220.867,306.2z"/>
		<path style="fill:#0096E6;" d="M263.533,24.6c0,5.12-3.413,8.533-8.533,8.533s-8.533-3.413-8.533-8.533s3.413-8.533,8.533-8.533
			S263.533,19.48,263.533,24.6"/>
		<path style="fill:#0096E6;" d="M237.933,50.2c0,5.12-3.413,8.533-8.533,8.533c-5.12,0-8.533-3.413-8.533-8.533
			s3.413-8.533,8.533-8.533C234.52,41.667,237.933,45.08,237.933,50.2"/>
		<path style="fill:#0096E6;" d="M237.933,101.4c0,5.12-3.413,8.533-8.533,8.533c-5.12,0-8.533-3.413-8.533-8.533
			c0-5.12,3.413-8.533,8.533-8.533C234.52,92.867,237.933,96.28,237.933,101.4"/>
		<path style="fill:#0096E6;" d="M263.533,75.8c0,5.12-3.413,8.533-8.533,8.533s-8.533-3.413-8.533-8.533s3.413-8.533,8.533-8.533
			S263.533,70.68,263.533,75.8"/>
		<path style="fill:#0096E6;" d="M289.133,50.2c0,5.12-3.413,8.533-8.533,8.533s-8.533-3.413-8.533-8.533s3.413-8.533,8.533-8.533
			S289.133,45.08,289.133,50.2"/>
		<path style="fill:#0096E6;" d="M289.133,101.4c0,5.12-3.413,8.533-8.533,8.533s-8.533-3.413-8.533-8.533
			c0-5.12,3.413-8.533,8.533-8.533S289.133,96.28,289.133,101.4"/>
		<path style="fill:#0096E6;" d="M263.533,127c0,5.12-3.413,8.533-8.533,8.533s-8.533-3.413-8.533-8.533s3.413-8.533,8.533-8.533
			S263.533,121.88,263.533,127"/>
		<path style="fill:#0096E6;" d="M237.933,152.6c0,5.12-3.413,8.533-8.533,8.533c-5.12,0-8.533-3.413-8.533-8.533
			c0-5.12,3.413-8.533,8.533-8.533C234.52,144.067,237.933,147.48,237.933,152.6"/>
		<path style="fill:#0096E6;" d="M263.533,178.2c0,5.12-3.413,8.533-8.533,8.533s-8.533-3.413-8.533-8.533
			c0-5.12,3.413-8.533,8.533-8.533S263.533,173.08,263.533,178.2"/>
		<path style="fill:#0096E6;" d="M289.133,152.6c0,5.12-3.413,8.533-8.533,8.533s-8.533-3.413-8.533-8.533
			c0-5.12,3.413-8.533,8.533-8.533S289.133,147.48,289.133,152.6"/>
	</g>
</g>
<g>
</g>
<g>
</g>
<g>
</g>
<g>
</g>
<g>
</g>
<g>
</g>
<g>
</g>
<g>
</g>
<g>
</g>
<g>
</g>
<g>
</g>
<g>
</g>
<g>
</g>
<g>
</g>
<g>
</g>
</svg>
