<?xml version="1.0"?>
<svg xmlns="http://www.w3.org/2000/svg" id="Layer_1" data-name="Layer 1" viewBox="0 0 512 512" width="512" height="512"><title>Cargo Truck</title><rect x="125" y="172" width="40" height="103" style="fill:#d4e1f4"/><rect x="125" y="289" width="40" height="99" style="fill:#d4e1f4"/><path d="M165,411.675V402H125v9.675c0,5.171,5.935,9.325,12.387,9.325h40C170.935,421,165,416.846,165,411.675Z" style="fill:#d4e1f4"/><path d="M196.29,133h-40a30.211,30.211,0,0,0-30.2,25h40A30.211,30.211,0,0,1,196.29,133Z" style="fill:#d4e1f4"/><path d="M205,402.136a7,7,0,0,0,7-7V353.55A30.291,30.291,0,0,1,242.414,323h27.174A30.29,30.29,0,0,1,300,353.55v41.586a7,7,0,0,0,14,0V353.55A44.305,44.305,0,0,0,269.588,309H242.414A44.306,44.306,0,0,0,198,353.55v41.586A7,7,0,0,0,205,402.136Z" style="fill:#1ae5be"/><path d="M382,355a17,17,0,0,0-17-17H342a17,17,0,0,0-17,17v4a17,17,0,0,0,17,17h23a17,17,0,0,0,17-17Zm-14,4a3,3,0,0,1-3,3H342a3,3,0,0,1-3-3v-4a3,3,0,0,1,3-3h23a3,3,0,0,1,3,3Z" style="fill:#1ae5be"/><path d="M187,355a17,17,0,0,0-17-17H147a17,17,0,0,0-17,17v4a17,17,0,0,0,17,17h23a17,17,0,0,0,17-17Zm-14,4a3,3,0,0,1-3,3H147a3,3,0,0,1-3-3v-4a3,3,0,0,1,3-3h23a3,3,0,0,1,3,3Z" style="fill:#1ae5be"/><path d="M380,420.591a7,7,0,0,0-7,7v31.085c0,8.206-6.793,15.324-15,15.324h-1.1c-8.206,0-14.9-7.118-14.9-15.324V428.324a7,7,0,0,0-14,0V454h-3.854c-.9,0-4.146-3.684-4.146-9.5V428.324a7,7,0,0,0-14,0V444.5c0,13,8.212,23.5,18.146,23.5h5.314c3.79,11,14.655,20,27.44,20H358c15.926,0,29-13.4,29-29.324V427.591A7,7,0,0,0,380,420.591Z" style="fill:#1ae5be"/><path d="M155.1,488c12.785,0,23.649-9,27.44-20h5.313C197.79,468,206,457.492,206,444.5V428.324a7,7,0,0,0-14,0V444.5c0,5.819-3.249,9.5-4.145,9.5H184V428.324a7,7,0,0,0-14,0v30.352c0,8.206-6.692,15.324-14.9,15.324H154c-8.206,0-15-7.118-15-15.324V427.591a7,7,0,0,0-14,0v31.085C125,474.6,138.076,488,154,488Z" style="fill:#1ae5be"/><path d="M205,402.136a7,7,0,0,0,7-7V353.55A30.291,30.291,0,0,1,242.414,323h27.174A30.29,30.29,0,0,1,300,353.55v41.586a7,7,0,0,0,14,0V353.55A44.305,44.305,0,0,0,269.588,309H242.414A44.306,44.306,0,0,0,198,353.55v41.586A7,7,0,0,0,205,402.136Z" style="fill:#1ae5be"/><path d="M382,355a17,17,0,0,0-17-17H342a17,17,0,0,0-17,17v4a17,17,0,0,0,17,17h23a17,17,0,0,0,17-17Zm-14,4a3,3,0,0,1-3,3H342a3,3,0,0,1-3-3v-4a3,3,0,0,1,3-3h23a3,3,0,0,1,3,3Z" style="fill:#1ae5be"/><path d="M187,355a17,17,0,0,0-17-17H147a17,17,0,0,0-17,17v4a17,17,0,0,0,17,17h23a17,17,0,0,0,17-17Zm-14,4a3,3,0,0,1-3,3H147a3,3,0,0,1-3-3v-4a3,3,0,0,1,3-3h23a3,3,0,0,1,3,3Z" style="fill:#1ae5be"/><path d="M380,420.591a7,7,0,0,0-7,7v31.085c0,8.206-6.793,15.324-15,15.324h-1.1c-8.206,0-14.9-7.118-14.9-15.324V428.324a7,7,0,0,0-14,0V454h-3.854c-.9,0-4.146-3.684-4.146-9.5V428.324a7,7,0,0,0-14,0V444.5c0,13,8.212,23.5,18.146,23.5h5.314c3.79,11,14.655,20,27.44,20H358c15.926,0,29-13.4,29-29.324V427.591A7,7,0,0,0,380,420.591Z" style="fill:#1ae5be"/><path d="M155.1,488c12.785,0,23.649-9,27.44-20h5.313C197.79,468,206,457.492,206,444.5V428.324a7,7,0,0,0-14,0V444.5c0,5.819-3.249,9.5-4.145,9.5H184V428.324a7,7,0,0,0-14,0v30.352c0,8.206-6.692,15.324-14.9,15.324H154c-8.206,0-15-7.118-15-15.324V427.591a7,7,0,0,0-14,0v31.085C125,474.6,138.076,488,154,488Z" style="fill:#1ae5be"/><path d="M101,187.559a7,7,0,0,0,7-7V71.442C108,53.246,122.8,38,141,38H371c18.2,0,33,15.246,33,33.442V180.559a7,7,0,0,0,14,0V71.442C418,45.526,396.918,24,371,24H141c-25.916,0-47,21.526-47,47.442V180.559A7,7,0,0,0,101,187.559Z" style="fill:#0635c9"/><path d="M105,375h6v36.675C111,424.655,123.1,435,137.387,435H374.613C388.9,435,401,424.655,401,411.675V375h6a11.252,11.252,0,0,0,11-11.278V257.953a7,7,0,0,0-14,0V361h-3V163.58c0-24.706-20.584-44.58-45.291-44.58H156.29C131.584,119,111,138.874,111,163.58V361h-3V257.953a7,7,0,0,0-14,0V363.722A11.252,11.252,0,0,0,105,375ZM249,172V275H125V172Zm138,0V275H263V172Zm0,216H125V289H387Zm0,23.675c0,5.171-5.935,9.325-12.387,9.325H137.387c-6.452,0-12.387-4.154-12.387-9.325V402H387ZM156.29,133H355.709a30.211,30.211,0,0,1,30.206,25H126.085A30.211,30.211,0,0,1,156.29,133Z" style="fill:#0635c9"/><path d="M415,174H391.663a7,7,0,0,0,0,14H412v63H391.663a7,7,0,0,0,0,14H415a11.053,11.053,0,0,0,11-11.047V184.559C426,178.494,421.065,174,415,174Z" style="fill:#1ae5be"/><path d="M120.337,251H100V188h20.337a7,7,0,0,0,0-14H97c-6.065,0-11,4.494-11,10.559v69.394A11.053,11.053,0,0,0,97,265h23.337a7,7,0,0,0,0-14Z" style="fill:#1ae5be"/></svg>
